<mxfile host="app.diagrams.net" modified="2024-05-23T10:41:03.175Z" agent="Mozilla/5.0 (Windows NT 10.0; Win64; x64) AppleWebKit/537.36 (KHTML, like Gecko) Chrome/121.0.0.0 Safari/537.36" version="24.4.6" etag="4JgaVUWxbM84IfVg4l8N" type="github">
  <diagram name="PÃ¡gina-1" id="-pobUubYLkap1iCFMJ6N">
    <mxGraphModel>
      <root>
        <mxCell id="0" />
        <mxCell id="1" parent="0" />
      </root>
    </mxGraphModel>
  </diagram>
</mxfile>
